<svg width="1024" height="1024" xmlns="http://www.w3.org/2000/svg" class="icon">
 <defs>
  <style type="text/css"/>
 </defs>
 <g>
  <title>background</title>
  <rect fill="none" id="canvas_background" height="402" width="582" y="-1" x="-1"/>
 </g>
 <g>
  <title>Layer 1</title>
  <path stroke="null" id="svg_1" fill="#4C4C4C" d="m93.454521,982.812183c0,21.379601 -20.775817,38.877931 -45.397286,38.877931c-24.271109,0 -44.709851,-17.498329 -44.709851,-39.171365c0,-71.154296 33.559786,-124.518247 79.871992,-163.688194c64.537539,-53.646044 154.682867,-77.285232 208.336017,-81.448598c10.846199,-1.124123 20.470291,-4.740312 27.203502,-10.294302c4.112987,-3.616189 6.700002,-8.306887 7.958639,-12.786368c-42.199218,-30.266269 -61.988716,-71.962304 -77.970752,-107.252397c-8.295715,-17.248839 -15.332792,-31.668233 -19.180104,-35.865621l-0.946469,-0.265083l-0.305527,-0.266501l-0.343718,0l0,-0.293434c-18.834726,-15.000593 -45.357435,-43.367335 -59.094514,-75.601174c-14.075815,-31.933317 -17.57775,-67.239003 3.501934,-99.472841c-11.228107,-29.485195 -16.935147,-61.719034 -16.935147,-95.092589c-0.649244,-42.492702 7.037078,-85.573691 22.376512,-125.02715l1.907882,-3.338348c21.722286,-55.307422 58.822197,-95.885004 106.127365,-123.377113c50.450101,-30.052218 113.0864,-43.646594 183.370831,-45.052811c26.217182,-0.293434 61.988716,-0.857622 96.840349,5.006813c39.954261,6.129518 77.665226,19.463064 100.652791,47.532119c47.290224,-3.621859 88.504783,19.148366 120.772722,52.516251c39.650395,40.051668 68.079325,98.381322 74.163292,132.844979c5.099307,25.576989 5.099307,52.289442 0.649244,80.573966c-3.236259,21.989151 -8.976508,45.611329 -16.631281,68.974093c24.317603,33.322523 21.086325,70.561757 7.005529,103.354114c-14.042606,32.232421 -40.259788,61.164769 -59.400041,75.883268l-0.649244,0.575528l-0.649244,0.525914l0,0.299105c-4.79212,3.903953 -11.830858,18.622452 -19.782855,35.572187c-15.67651,35.023592 -34.551087,75.862005 -75.765646,105.59669c0.954771,5.3045 4.151178,10.260281 8.639432,14.442075c6.396136,5.54832 16.631281,9.164509 27.171953,10.288632c53.349283,4.163366 143.448118,27.808225 208.032151,81.452851c46.000037,38.87226 79.870332,92.529645 79.870332,163.983046c0,21.379601 -20.476932,38.87226 -44.754684,38.87226c-24.918693,0 -44.708191,-17.492659 -44.708191,-39.171365c0,-46.70143 -22.378172,-81.414577 -52.73989,-107.002907c-47.602392,-39.752564 -114.079362,-57.544327 -153.691566,-60.036393c-31.964073,-2.77416 -61.379323,-14.425065 -83.113232,-33.356544c-24.27277,-20.554583 -58.785667,-98.082218 -13.698888,-122.818595c31.625337,-16.40114 48.218427,-51.723836 61.346113,-81.442928c12.440251,-26.402008 22.682038,-49.21476 43.152329,-65.289861l0,0.525914l0.298885,-0.525914c11.188256,-8.644265 27.779685,-26.153935 36.115251,-45.616999c6.387833,-14.451998 7.64647,-28.877063 -3.236259,-38.87226l0.343718,0c-11.8375,-11.418425 -15.950488,-31.967338 -10.540672,-46.142913c8.944959,-24.7463 15.332792,-47.808543 18.187143,-70.062777c2.892541,-20.849435 3.541785,-40.295488 -0.303866,-59.426843c-3.84067,-23.379775 -24.27277,-63.951687 -53.349283,-93.426959c-15.334453,-15.825611 -31.964073,-27.210015 -46.039889,-24.994373c-15.644961,1.91512 -30.977753,0 -45.053569,-5.55399c-12.141366,-5.300247 -22.987565,-13.085473 -31.276638,-23.340083l-2.899183,-2.77983c-6.700002,-8.903678 -23.927392,-14.48602 -44.098798,-17.50967c-26.522709,-4.197388 -56.547351,-3.631782 -78.918882,-3.073265c-53.349283,0.559935 -99.69968,9.995198 -135.80829,31.668233c-31.321471,18.073858 -55.599222,45.582977 -71.237541,84.222758l-1.290186,3.056254c-11.830858,30.843215 -18.570711,65.026195 -17.921467,98.38274c0.647584,29.719092 6.090609,58.384939 17.272223,82.273617c5.104289,7.480451 7.005529,16.949734 4.800423,25.554308c-4.800423,25.576989 -28.43059,26.701112 -14.387984,60.025053c8.328924,18.334688 24.27277,35.881214 35.461026,45.051393l1.296828,1.650037l0.602751,0c19.485631,15.859633 30.064494,38.363357 41.862143,64.199759c14.082457,29.724762 30.667245,65.607394 62.021925,82.540118c14.042606,6.096915 23.628507,18.904546 23.628507,34.463657c0,33.352292 -6.387833,62.278969 -35.153839,87.257749c-21.081344,18.932897 -51.105987,30.582384 -83.717644,33.356544c-39.306677,2.497736 -105.43993,20.2895 -152.738456,60.042063c-30.672226,25.58833 -52.401154,60.295806 -52.401154,107.296341zm0,0"/>
  <path stroke="null" id="svg_2" fill="#4C4C4C" d="m470.624057,414.706292c0,34.086202 -23.351562,61.774058 -52.071244,61.774058l-19.556774,0c-28.726052,0 -52.077614,-27.687856 -52.077614,-61.774058c0,-34.110297 23.351562,-61.761084 52.077614,-61.761084l19.556774,0c28.719682,0 52.071244,27.643372 52.071244,61.761084zm0,0m192.871734,-6.763488c0,34.110297 -23.319713,61.803714 -52.077614,61.803714l-19.556774,0c-28.757901,0 -52.077614,-27.693417 -52.077614,-61.803714c0,-34.108444 23.319713,-61.75923 52.077614,-61.75923l19.556774,0c28.757901,0 52.077614,27.650786 52.077614,61.75923zm-192.871734,6.763488"/>
  <path stroke="null" id="svg_3" fill="#4C4C4C" d="m545.03328,409.534421c0,5.388805 -3.910141,9.848585 -8.710527,9.848585l-62.636895,0c-4.856358,0 -8.7665,-4.45978 -8.7665,-9.848585c0,-5.489488 3.910141,-9.887485 8.7665,-9.887485l62.636895,0c4.800385,0 8.710527,4.40715 8.710527,9.887485zm0,0"/>
 </g>
</svg>